<svg xmlns="http://www.w3.org/2000/svg" width="17.008" height="15.005" viewBox="0 0 17.008 15.005">
  <g id="com_tel" transform="translate(1108 -723.006)">
    <path id="패스_31" data-name="패스 31" d="M7.742,2.647h7.841a1.345,1.345,0,0,1,1.374,1.023A1.77,1.77,0,0,1,17,4.1q0,5.229,0,10.458a1.365,1.365,0,0,1-1.459,1.453H1.462A1.365,1.365,0,0,1,0,14.562Q0,9.324,0,4.086A1.336,1.336,0,0,1,.826,2.775v.2q0,5.254,0,10.51a1.6,1.6,0,0,0,1.191,1.633,1.622,1.622,0,0,0,.41.057q1.858.006,3.717,0a1.591,1.591,0,0,0,1.6-1.6q0-5.342,0-10.684V2.647M15.37,4.278H8.69V6.723h6.68Zm-5.3,6.7a.7.7,0,0,0-.7-.695.7.7,0,1,0,0,1.392.7.7,0,0,0,.694-.7m3.922-.013a.693.693,0,0,0,.68.71.7.7,0,1,0,.027-1.392.693.693,0,0,0-.707.682M10.069,8.5a.7.7,0,0,0-1.392,0,.709.709,0,0,0,.7.7.7.7,0,0,0,.693-.7m4.614-.692a.687.687,0,0,0-.692.694.7.7,0,0,0,.694.7.711.711,0,0,0,.7-.7.7.7,0,0,0-.7-.692m0,6.329a.7.7,0,0,0,.7-.689.708.708,0,0,0-.695-.7.7.7,0,0,0-.7.695.685.685,0,0,0,.69.695m-5.313,0a.689.689,0,0,0,.7-.685.7.7,0,0,0-.687-.706.708.708,0,0,0-.7.692.693.693,0,0,0,.691.7m1.972-3.167a.691.691,0,1,0,.693-.693.688.688,0,0,0-.693.693m.685,3.167a.686.686,0,0,0,.7-.688.691.691,0,1,0-1.382-.009.679.679,0,0,0,.685.7m.01-6.329a.681.681,0,0,0-.695.688.691.691,0,1,0,.695-.688" transform="translate(-1108 722)" fill="#00387c"/>
    <path id="패스_32" data-name="패스 32" d="M7.218,7.845v5.662a1.076,1.076,0,0,1-1.149,1.151q-1.788,0-3.577,0a1.085,1.085,0,0,1-1.141-1.146V2.153A1.091,1.091,0,0,1,2.5,1.007H6.073A1.082,1.082,0,0,1,7.218,2.148v5.7" transform="translate(-1108 722)" fill="#00387c"/>
  </g>
</svg>
