<svg xmlns="http://www.w3.org/2000/svg" xmlns:xlink="http://www.w3.org/1999/xlink" width="181.054" height="60.59" viewBox="0 0 181.054 60.59">
  <defs>
    <clipPath id="clip-path">
      <rect id="사각형_1" data-name="사각형 1" width="181.054" height="60.589" transform="translate(0 0)" fill="none"/>
    </clipPath>
  </defs>
  <g id="darwin_logo" transform="translate(0 0)">
    <path id="패스_1" data-name="패스 1" d="M181.054,0,11.331,4.38,159.52,5.84,129.59,60.59Z" fill="#003487"/>
    <g id="그룹_2" data-name="그룹 2">
      <g id="그룹_1" data-name="그룹 1" clip-path="url(#clip-path)">
        <path id="패스_2" data-name="패스 2" d="M5.152,13.85H15.179A8.737,8.737,0,0,1,19.8,14.878a6.541,6.541,0,0,1,2.52,2.949,12.021,12.021,0,0,1,.974,4.471,25.98,25.98,0,0,1-.375,5.4,25.969,25.969,0,0,1-1.967,6.935,14.976,14.976,0,0,1-2.908,4.129,8.843,8.843,0,0,1-3.413,2.216,13.678,13.678,0,0,1-4.151.761H.448Zm5.684,6.317-2.57,15.24H9.92a6.212,6.212,0,0,0,3.11-.6,4.971,4.971,0,0,0,1.753-2.092,18.178,18.178,0,0,0,1.324-4.842q.747-4.434-.109-6.07T12.52,20.167Z" fill="#003487"/>
        <path id="패스_3" data-name="패스 3" d="M36.985,37.138H29.323l-1.841,4.6H20.591L33.5,13.851h7.361l3.5,27.891H37.3ZM36.6,31.107l-.72-10.027L31.806,31.107Z" fill="#003487"/>
        <path id="패스_4" data-name="패스 4" d="M46.6,41.742l4.7-27.891H62.555a12.077,12.077,0,0,1,4.667.684,4.259,4.259,0,0,1,2.239,2.541,8.692,8.692,0,0,1,.251,4.518A10.819,10.819,0,0,1,68.261,25.6a9.136,9.136,0,0,1-2.592,2.73,8.641,8.641,0,0,1-2.556,1.1A4.947,4.947,0,0,1,64.7,30.461a6.468,6.468,0,0,1,.832,1.466,9.5,9.5,0,0,1,.653,1.734l1.906,8.081H60.461l-2.17-8.523a5.424,5.424,0,0,0-.859-2.15,2.056,2.056,0,0,0-1.545-.647h-.6l-1.909,11.32Zm9.577-16.59h2.846a8.992,8.992,0,0,0,1.852-.381A2.251,2.251,0,0,0,62.12,23.9a3.569,3.569,0,0,0,.7-1.617A2.633,2.633,0,0,0,62.5,20.2a2.955,2.955,0,0,0-2.4-.723H57.136Z" fill="#003487"/>
        <path id="패스_5" data-name="패스 5" d="M72.7,13.85h6.41l-.325,15.614L84.8,13.85h6.388l.756,15.594L96.88,13.85h6.377L93.739,41.742H87.121l-.869-17.561L79.474,41.742H72.856Z" fill="#003487"/>
        <path id="패스_6" data-name="패스 6" d="M105.729,13.85h6.764l-4.7,27.892h-6.764Z" fill="#003487"/>
        <path id="패스_7" data-name="패스 7" d="M117.38,13.85h6.3L129.3,29.281l2.6-15.431h6.361l-4.7,27.892H127.2l-5.6-15.315-2.582,15.315h-6.347Z" fill="#003487"/>
        <path id="패스_8" data-name="패스 8" d="M0,52.39l1.208-7.054H5.495l-.2,1.178H2.2l-.276,1.6h3l-.2,1.179h-3l-.33,1.915H4.716l-.2,1.179Z" fill="#003487"/>
        <path id="패스_9" data-name="패스 9" d="M8.27,52.39H7L5.958,45.336H7.146l.739,5.336,2.391-5.336h1.177Z" fill="#003487"/>
        <path id="패스_10" data-name="패스 10" d="M11.135,49.62a6.185,6.185,0,0,1,.308-1.88A3.917,3.917,0,0,1,12.6,45.857a2.673,2.673,0,0,1,1.771-.642,2.161,2.161,0,0,1,1.72.794,3.226,3.226,0,0,1,.676,2.163,5.383,5.383,0,0,1-.484,2.289,3.722,3.722,0,0,1-1.2,1.549,2.7,2.7,0,0,1-1.579.5,2.038,2.038,0,0,1-1.64-.721,3.221,3.221,0,0,1-.727-2.169m1.179-.029a1.9,1.9,0,0,0,.382,1.243,1.168,1.168,0,0,0,.932.464,1.4,1.4,0,0,0,.875-.347,2.731,2.731,0,0,0,.753-1.136,4.246,4.246,0,0,0,.32-1.608,2.092,2.092,0,0,0-.394-1.347,1.11,1.11,0,0,0-.91-.432,1.438,1.438,0,0,0-.9.351,2.674,2.674,0,0,0-.753,1.127,4.5,4.5,0,0,0-.31,1.685" fill="#003487"/>
        <path id="패스_11" data-name="패스 11" d="M17.078,52.39l1.21-7.054h1.191l-1.013,5.875H21.42l-.2,1.179Z" fill="#003487"/>
        <path id="패스_12" data-name="패스 12" d="M23.161,45.336h1.191L23.7,49.168l-.158.924a1.693,1.693,0,0,0-.019.24.959.959,0,0,0,.258.707.948.948,0,0,0,.7.259,1.111,1.111,0,0,0,1.1-.724,6.87,6.87,0,0,0,.331-1.379l.688-3.859H27.8l-.686,3.85a9.052,9.052,0,0,1-.424,1.737,2.626,2.626,0,0,1-.879,1.194,2.323,2.323,0,0,1-1.379.394,1.988,1.988,0,0,1-1.511-.58,2.2,2.2,0,0,1-.551-1.581,9.7,9.7,0,0,1,.168-1.3Z" fill="#003487"/>
        <path id="패스_13" data-name="패스 13" d="M30.327,52.39H29.14l1.013-5.876H28.414l.2-1.178h4.6l-.2,1.178h-1.67Z" fill="#003487"/>
        <path id="패스_14" data-name="패스 14" d="M32.63,52.39l1.255-7.054h1.188L33.817,52.39Z" fill="#003487"/>
        <path id="패스_15" data-name="패스 15" d="M35.377,49.62a6.184,6.184,0,0,1,.308-1.88,3.917,3.917,0,0,1,1.155-1.883,2.673,2.673,0,0,1,1.771-.642,2.161,2.161,0,0,1,1.72.794,3.226,3.226,0,0,1,.676,2.163,5.383,5.383,0,0,1-.484,2.289,3.722,3.722,0,0,1-1.2,1.549,2.7,2.7,0,0,1-1.579.5,2.038,2.038,0,0,1-1.64-.721,3.221,3.221,0,0,1-.727-2.169m1.179-.029a1.9,1.9,0,0,0,.382,1.243,1.168,1.168,0,0,0,.932.464,1.4,1.4,0,0,0,.875-.347,2.742,2.742,0,0,0,.754-1.136,4.264,4.264,0,0,0,.319-1.608,2.092,2.092,0,0,0-.394-1.347,1.11,1.11,0,0,0-.91-.432,1.438,1.438,0,0,0-.9.351,2.674,2.674,0,0,0-.753,1.127,4.5,4.5,0,0,0-.31,1.685" fill="#003487"/>
        <path id="패스_16" data-name="패스 16" d="M45.906,52.39H44.8l-1.562-4.74-.81,4.74H41.32l1.206-7.054h1.111l1.561,4.72.811-4.72h1.108Z" fill="#003487"/>
        <path id="패스_17" data-name="패스 17" d="M49.746,49.62a6.184,6.184,0,0,1,.308-1.88,3.917,3.917,0,0,1,1.155-1.883,2.673,2.673,0,0,1,1.771-.642,2.161,2.161,0,0,1,1.72.794,3.226,3.226,0,0,1,.676,2.163,5.383,5.383,0,0,1-.484,2.289,3.722,3.722,0,0,1-1.2,1.549,2.7,2.7,0,0,1-1.579.5,2.038,2.038,0,0,1-1.64-.721,3.221,3.221,0,0,1-.727-2.169m1.179-.029a1.9,1.9,0,0,0,.382,1.243,1.168,1.168,0,0,0,.932.464,1.4,1.4,0,0,0,.875-.347,2.742,2.742,0,0,0,.754-1.136,4.264,4.264,0,0,0,.319-1.608,2.092,2.092,0,0,0-.394-1.347,1.11,1.11,0,0,0-.91-.432,1.438,1.438,0,0,0-.9.351,2.674,2.674,0,0,0-.753,1.127,4.5,4.5,0,0,0-.31,1.685" fill="#003487"/>
        <path id="패스_18" data-name="패스 18" d="M55.689,52.39,56.9,45.336h4.048l-.2,1.178H57.885l-.291,1.694h2.8l-.2,1.179h-2.8l-.516,3Z" fill="#003487"/>
        <path id="패스_19" data-name="패스 19" d="M62.926,50.547l1.083-.159a1.575,1.575,0,0,0,.245.78.579.579,0,0,0,.472.217.794.794,0,0,0,.63-.311,1.23,1.23,0,0,0,.26-.815,1.034,1.034,0,0,0-.213-.7.7.7,0,0,0-.551-.243.984.984,0,0,0-.179.019l.2-1.149.116.009a.862.862,0,0,0,.683-.272,1.128,1.128,0,0,0,.241-.772.816.816,0,0,0-.164-.544.516.516,0,0,0-.412-.192q-.533,0-.743.967l-1.035-.251a2.865,2.865,0,0,1,.612-1.265,1.647,1.647,0,0,1,1.251-.558,1.5,1.5,0,0,1,1.171.5,1.924,1.924,0,0,1,.45,1.34,1.861,1.861,0,0,1-.272,1.006,1.585,1.585,0,0,1-.719.635,1.506,1.506,0,0,1,.529.585,1.751,1.751,0,0,1,.188.815,2.461,2.461,0,0,1-.515,1.516,1.859,1.859,0,0,1-1.54.809,1.6,1.6,0,0,1-1.193-.5,2.451,2.451,0,0,1-.592-1.466" fill="#003487"/>
        <path id="패스_20" data-name="패스 20" d="M67.367,52.389l1.208-7.054h1.55a5.955,5.955,0,0,1,1.106.067,1.837,1.837,0,0,1,.852.477,2.463,2.463,0,0,1,.577.95,4.27,4.27,0,0,1,.212,1.427,5.779,5.779,0,0,1-.216,1.619,4.353,4.353,0,0,1-.609,1.3,2.818,2.818,0,0,1-.811.809,2.726,2.726,0,0,1-.876.344,5.126,5.126,0,0,1-.952.062Zm1.381-1.135h.6a3.165,3.165,0,0,0,.926-.092,1.479,1.479,0,0,0,.651-.474,3.129,3.129,0,0,0,.525-1,4.471,4.471,0,0,0,.222-1.474,2.637,2.637,0,0,0-.182-1.088,1.02,1.02,0,0,0-.486-.534,2.091,2.091,0,0,0-.761-.1h-.683Z" fill="#003487"/>
        <path id="패스_21" data-name="패스 21" d="M77.928,52.39H76.742l1.012-5.876H76.015l.2-1.178h4.6l-.2,1.178H78.94Z" fill="#003487"/>
        <path id="패스_22" data-name="패스 22" d="M80.374,52.39l1.208-7.054h4.287l-.2,1.178h-3.1l-.276,1.6h3l-.2,1.179h-3l-.33,1.915H85.09l-.2,1.179Z" fill="#003487"/>
        <path id="패스_23" data-name="패스 23" d="M89.935,49.849l1.2.216A3.769,3.769,0,0,1,90.068,51.9a2.428,2.428,0,0,1-1.634.61,2,2,0,0,1-1.648-.76,3.594,3.594,0,0,1-.609-2.279,5.591,5.591,0,0,1,.443-2.3A3.489,3.489,0,0,1,87.748,45.7a2.527,2.527,0,0,1,1.485-.483,2.052,2.052,0,0,1,1.5.592,2.65,2.65,0,0,1,.7,1.694l-1.14.135a1.581,1.581,0,0,0-.375-.905.976.976,0,0,0-.711-.265,1.377,1.377,0,0,0-.86.323,2.444,2.444,0,0,0-.7,1.08,4.614,4.614,0,0,0-.291,1.667,2.173,2.173,0,0,0,.336,1.307.991.991,0,0,0,.817.455,1.225,1.225,0,0,0,.845-.359,2.209,2.209,0,0,0,.581-1.09" fill="#003487"/>
        <path id="패스_24" data-name="패스 24" d="M95.557,49.238H93.334l-.542,3.152H91.606l1.208-7.055H94l-.468,2.724h2.222l.466-2.724h1.187L96.2,52.39H95.018Z" fill="#003487"/>
        <path id="패스_25" data-name="패스 25" d="M102.023,52.39h-1.106l-1.562-4.74-.809,4.74H97.437l1.207-7.054h1.11l1.562,4.72.81-4.72h1.109Z" fill="#003487"/>
        <path id="패스_26" data-name="패스 26" d="M103.616,49.62a6.154,6.154,0,0,1,.308-1.88,3.91,3.91,0,0,1,1.155-1.883,2.673,2.673,0,0,1,1.771-.642,2.16,2.16,0,0,1,1.72.794,3.231,3.231,0,0,1,.676,2.163,5.4,5.4,0,0,1-.483,2.289,3.732,3.732,0,0,1-1.2,1.549,2.7,2.7,0,0,1-1.579.5,2.038,2.038,0,0,1-1.64-.721,3.221,3.221,0,0,1-.727-2.169m1.179-.029a1.9,1.9,0,0,0,.382,1.243,1.17,1.17,0,0,0,.932.464,1.4,1.4,0,0,0,.875-.347,2.731,2.731,0,0,0,.753-1.136,4.246,4.246,0,0,0,.32-1.608,2.092,2.092,0,0,0-.394-1.347,1.11,1.11,0,0,0-.91-.432,1.434,1.434,0,0,0-.894.351,2.666,2.666,0,0,0-.754,1.127,4.5,4.5,0,0,0-.31,1.685" fill="#003487"/>
        <path id="패스_27" data-name="패스 27" d="M109.559,52.39l1.21-7.054h1.191l-1.013,5.875H113.9l-.2,1.179Z" fill="#003487"/>
        <path id="패스_28" data-name="패스 28" d="M114.843,49.62a6.154,6.154,0,0,1,.308-1.88,3.909,3.909,0,0,1,1.154-1.883,2.673,2.673,0,0,1,1.771-.642,2.16,2.16,0,0,1,1.72.794,3.226,3.226,0,0,1,.676,2.163,5.4,5.4,0,0,1-.483,2.289,3.732,3.732,0,0,1-1.2,1.549,2.7,2.7,0,0,1-1.578.5,2.04,2.04,0,0,1-1.641-.721,3.22,3.22,0,0,1-.726-2.169m1.178-.029a1.894,1.894,0,0,0,.383,1.243,1.167,1.167,0,0,0,.931.464,1.4,1.4,0,0,0,.875-.347,2.742,2.742,0,0,0,.754-1.136,4.265,4.265,0,0,0,.32-1.608,2.092,2.092,0,0,0-.395-1.347,1.109,1.109,0,0,0-.909-.432,1.434,1.434,0,0,0-.9.351,2.674,2.674,0,0,0-.753,1.127,4.5,4.5,0,0,0-.311,1.685" fill="#003487"/>
        <path id="패스_29" data-name="패스 29" d="M123.983,48.622h2.586l-.52,3.027a4.186,4.186,0,0,1-2.48.861,2.15,2.15,0,0,1-1.73-.683,3.384,3.384,0,0,1-.7-2.266,5.567,5.567,0,0,1,.478-2.318A3.662,3.662,0,0,1,122.8,45.7a2.681,2.681,0,0,1,1.565-.486,2.3,2.3,0,0,1,1.577.549,2.827,2.827,0,0,1,.832,1.674l-1.106.154q-.294-1.2-1.3-1.2a1.684,1.684,0,0,0-1.009.335,2.394,2.394,0,0,0-.761,1.085,4.678,4.678,0,0,0-.3,1.752,2.1,2.1,0,0,0,.337,1.318,1.179,1.179,0,0,0,.974.419,2.329,2.329,0,0,0,.695-.106,3.334,3.334,0,0,0,.781-.342l.18-1.049h-1.477Z" fill="#003487"/>
        <path id="패스_30" data-name="패스 30" d="M129.953,52.39h-1.2l.5-2.748-1.61-4.306h1.267l.722,1.988c.171.475.287.82.347,1.039.105-.216.223-.438.355-.669l.535-.919.839-1.439h1.383l-2.673,4.441Z" fill="#003487"/>
      </g>
    </g>
  </g>
</svg>
