<svg xmlns="http://www.w3.org/2000/svg" width="17.008" height="17.018" viewBox="0 0 17.008 17.018">
  <g id="fax" transform="translate(940.432 -722)">
    <path id="패스_37" data-name="패스 37" d="M184.576,5.256v11.4a.683.683,0,0,1-.365.365h-11.26a.672.672,0,0,1-.362-.678q.009-5.613,0-11.226V4.9h1.017V8.911h9.973V4.906c.632-.038.782-.053.993.35M181.582,9.94c-.161,0-.321,0-.48,0a.5.5,0,0,0-.515.475.485.485,0,0,0,.472.515c.349.014.7.014,1.045,0a.5.5,0,0,0,.478-.515.509.509,0,0,0-.519-.475c-.161,0-.321,0-.481,0m.008,1.994c-.166,0-.332,0-.5,0a.5.5,0,0,0-.024.992c.342.012.685.011,1.027,0a.5.5,0,0,0,.487-.507.511.511,0,0,0-.512-.484c-.16,0-.32,0-.48,0m-6-1.492a.489.489,0,1,0-.481.492.494.494,0,0,0,.481-.492m1.016,0a.489.489,0,1,0,.487-.5.5.5,0,0,0-.487.5m2.972-.013a.49.49,0,1,0-.487.5.5.5,0,0,0,.487-.5m-3.987,2a.49.49,0,1,0-.494.5.5.5,0,0,0,.494-.5m1.993-.005a.489.489,0,1,0-.489.5.494.494,0,0,0,.489-.5m1.994,0a.49.49,0,1,0-.487.5.5.5,0,0,0,.487-.5m-3.987,2.006a.49.49,0,1,0-.5.492.5.5,0,0,0,.5-.492m1.993,0a.489.489,0,1,0-.495.495.495.495,0,0,0,.495-.495m1.994,0a.49.49,0,1,0-.5.495.5.5,0,0,0,.5-.495" transform="translate(-1108 722)" fill="#00387c"/>
    <path id="패스_38" data-name="패스 38" d="M168.5,17.018a3.247,3.247,0,0,1-.313-.136,1.107,1.107,0,0,1-.615-1.01q0-5.516,0-11.031a2.023,2.023,0,0,1,4.043.13q0,5.4,0,10.8a1.172,1.172,0,0,1-.915,1.222.188.188,0,0,0-.04.027Z" transform="translate(-1108 722)" fill="#00387c"/>
    <path id="패스_39" data-name="패스 39" d="M184.211,17.018a.688.688,0,0,0,.365-.366v.366Z" transform="translate(-1108 722)" fill="#00387c"/>
    <path id="패스_40" data-name="패스 40" d="M182.583,7.931h-8V7.744c0-2.374,0-4.749,0-7.124A.568.568,0,0,1,175.2,0c2.269.012,4.538.006,6.807.006a.5.5,0,0,1,.574.564V7.931ZM178.53,5.986c-.514,0-1.028,0-1.543,0a.493.493,0,0,0-.519.489.488.488,0,0,0,.5.505q1.56.008,3.119,0a.5.5,0,1,0-.031-.994c-.509-.005-1.018,0-1.527,0M178.548,2c-.52,0-1.04,0-1.56,0a.5.5,0,1,0,0,.995c1.028,0,2.057.006,3.086-.006a.653.653,0,0,0,.368-.153.438.438,0,0,0,.107-.53A.5.5,0,0,0,180.058,2c-.5,0-1.007,0-1.51,0m-.021,1.994c-.5,0-1.007,0-1.51,0a.5.5,0,1,0,.005,1h3a.5.5,0,1,0,0-1c-.5,0-1,0-1.493,0" transform="translate(-1108 722)" fill="#00387c"/>
  </g>
</svg>
