<svg xmlns="http://www.w3.org/2000/svg" width="17.008" height="11.96" viewBox="0 0 17.008 11.96">
  <g id="mail" transform="translate(604.185 -724.529)">
    <path id="패스_33" data-name="패스 33" d="M520.823,13.226c-.047.134-.094.267-.133.381l-5.134-5.1,5.135-5.089c.035.1.083.235.132.371Z" transform="translate(-1108 722)" fill="#00387c"/>
    <path id="패스_34" data-name="패스 34" d="M504.7,2.624a4.6,4.6,0,0,1,.644-.091q3.213-.009,6.427,0,3.762,0,7.523,0a5.116,5.116,0,0,1,.688.1c-.075.084-.1.121-.139.154Q516.32,6.321,512.8,9.853a.6.6,0,0,1-.953,0L504.8,2.786a1.205,1.205,0,0,0-.1-.083c0-.026.005-.053.008-.079" transform="translate(-1108 722)" fill="#00387c"/>
    <path id="패스_35" data-name="패스 35" d="M514.811,9.254l5.172,5.13a4.829,4.829,0,0,1-.667.1c-1.451.008-2.9,0-4.352,0q-4.8,0-9.6,0a5.338,5.338,0,0,1-.7-.094l5.165-5.122-.028-.046c.036.031.073.061.106.094l1.219,1.225a1.578,1.578,0,0,0,2.389-.006c.433-.436.873-.865,1.293-1.281" transform="translate(-1108 722)" fill="#00387c"/>
    <path id="패스_36" data-name="패스 36" d="M509.089,8.519c-1.708,1.694-3.418,3.392-5.154,5.113a2.9,2.9,0,0,1-.114-.568q-.012-4.557,0-9.114a2.754,2.754,0,0,1,.109-.549l5.159,5.118" transform="translate(-1108 722)" fill="#00387c"/>
  </g>
</svg>
