<svg xmlns="http://www.w3.org/2000/svg" xmlns:xlink="http://www.w3.org/1999/xlink" width="139.545" height="35.834" viewBox="0 0 139.545 35.834">
  <defs>
    <clipPath id="clip-path">
      <rect id="사각형_2" data-name="사각형 2" width="139.545" height="35.834" transform="translate(0 0)" fill="none"/>
    </clipPath>
  </defs>
  <g id="name_gayeon" transform="translate(0 0)">
    <g id="그룹_3" data-name="그룹 3" clip-path="url(#clip-path)">
      <path id="패스_44" data-name="패스 44" d="M18.4,20.694q1.393-.494,2.092-.72t1.26-.4q.561-.182,1.26-.428L25.1,18.4a1.232,1.232,0,0,1,.63-.136c.12.03.254.068.4.113a.7.7,0,0,1,.36.247.4.4,0,0,1,.068.45.67.67,0,0,1-.293.315c-.151.09-.315.181-.495.27a1.964,1.964,0,0,1-.5.18,12.232,12.232,0,0,1-1.4.428,3.246,3.246,0,0,1-.563.067,2.932,2.932,0,0,0-.54.068,13.441,13.441,0,0,0-1.372.427q-1.035.361-2.092.743t-2.182.742a2.135,2.135,0,0,0-.7.607,6.175,6.175,0,0,0-.563.833,30.474,30.474,0,0,1-3.015,4.116,17.451,17.451,0,0,1-3.869,3.308,21.373,21.373,0,0,1-2.9,1.529,9.937,9.937,0,0,1-3.172.766,4.03,4.03,0,0,1-1.62-.136,1.572,1.572,0,0,1-1.17-.809,1.4,1.4,0,0,1,.135-1.4,6.49,6.49,0,0,1,1.3-1.71q.766-.63,1.553-1.192t1.552-1.148a30.44,30.44,0,0,1,4.478-2.474q2.316-1.035,4.611-2.025a4.91,4.91,0,0,0,1.642-.855,4.082,4.082,0,0,0,1.148-1.4A5.741,5.741,0,0,0,17.5,18.31q.179-.9.27-.9a8.792,8.792,0,0,0-1.44.9,10.154,10.154,0,0,1-1.395.9,6.518,6.518,0,0,1-.945.428q-.45.158-.945.292a.832.832,0,0,1-.675.067,1.583,1.583,0,0,1-.585-.381,1.091,1.091,0,0,1,.09-1.26,5.906,5.906,0,0,1,.54-.721,4.531,4.531,0,0,1,.675-.63,7.164,7.164,0,0,1,1.71-1.215,9.876,9.876,0,0,1,1.935-.719,1.764,1.764,0,0,1,.562-.09h.563a2,2,0,0,1,.382-.045,1.052,1.052,0,0,0,.383-.09,2.238,2.238,0,0,1,.517-.112.378.378,0,0,1,.383.2q.4.36.089,1.035-.583,1.3-1.147,2.609t-1.192,2.475ZM3.775,32.438a13.642,13.642,0,0,0,3.261-1.417,22.368,22.368,0,0,0,3.127-2.228,22.8,22.8,0,0,0,2.7-2.7,16.451,16.451,0,0,0,1.98-2.879,22,22,0,0,0-2.834,1.1q-1.62.743-3.24,1.687T5.687,27.938a27.094,27.094,0,0,0-2.408,1.8A7.539,7.539,0,0,0,1.952,30.93a1.927,1.927,0,0,0-.54,1.058c-.014.3.157.5.518.607a4.082,4.082,0,0,0,1.845-.157m9.9-14.219q-.315.587.067.562A2.819,2.819,0,0,0,14.8,18.4a13.2,13.2,0,0,0,1.508-.968,12.394,12.394,0,0,0,1.462-1.237,4.033,4.033,0,0,0-1.035.157,6.64,6.64,0,0,0-1.148.428,6.549,6.549,0,0,0-1.079.652,4.2,4.2,0,0,0-.833.787" fill="#dbdbd9"/>
      <path id="패스_45" data-name="패스 45" d="M37.97,18.985a6.435,6.435,0,0,1-1.507,1.034,8.01,8.01,0,0,1-2.025.766,3.2,3.2,0,0,1-1.777-.045c-.51-.181-.765-.66-.765-1.441a6.149,6.149,0,0,1,.045-.742q.045-.382.135-.832-1.172.72-2.272,1.417t-2.272,1.327a1.17,1.17,0,0,1-.608.271q-.338.043-.652.09a1.252,1.252,0,0,1-1.395-.585,1.3,1.3,0,0,1,.135-1.486q.225-.269.405-.5a3.277,3.277,0,0,1,.449-.449,7.8,7.8,0,0,1,2.566-1.53,7.157,7.157,0,0,1,3.015-.36.947.947,0,0,0,.944-.36q.315-.315.607-.63t.608-.63a1.828,1.828,0,0,1,.224-.27.719.719,0,0,1,.271-.18,1.108,1.108,0,0,1,.337-.045.6.6,0,0,1,.338.09.93.93,0,0,1,.179.675,2.537,2.537,0,0,1-.359.9c-.09.18-.271.548-.54,1.1a8.271,8.271,0,0,0-.607,1.641,2.356,2.356,0,0,0-.023,1.328q.178.517,1.215.2a5.206,5.206,0,0,0,1.17-.473q.63-.338,1.26-.652c.119-.06.239-.127.359-.2a.538.538,0,0,1,.4-.067.648.648,0,0,1,.338.292c.074.135.007.247-.2.338m-11.833.54a8.912,8.912,0,0,0,2.744-1.013,10.223,10.223,0,0,0,2.34-1.687,7.717,7.717,0,0,0-2.835.809,5.449,5.449,0,0,0-2.249,1.891" fill="#dbdbd9"/>
      <path id="패스_46" data-name="패스 46" d="M43.5,20.784c.209-.091.375-.165.495-.226a2.4,2.4,0,0,0,.359-.224q.853-.45,1.665-.9t1.665-.9a1.8,1.8,0,0,1,.944-.271.6.6,0,0,1,.361.136,2.713,2.713,0,0,1,.269.225c.151.269.031.525-.359.764a9.082,9.082,0,0,1-.945.495,8.191,8.191,0,0,0-.99.54q-1.171.766-2.339,1.508t-2.34,1.507a4.326,4.326,0,0,0-1.17,1.17c-.3.45-.615.9-.946,1.35q-1.394,2.16-2.9,4.139a41.06,41.06,0,0,1-3.307,3.824,11.919,11.919,0,0,1-1.576,1.26,3.248,3.248,0,0,1-.562.383,2.733,2.733,0,0,1-.653.247,1.046,1.046,0,0,1-.854-.18.827.827,0,0,1-.27-.854,2.137,2.137,0,0,1,.315-1.08,12.171,12.171,0,0,1,1.508-2.385,22.472,22.472,0,0,1,1.912-2.069q1.529-1.44,3.059-2.858t3.1-2.857c.149-.18.308-.367.473-.563s.321-.4.472-.607q.763-1.168,1.485-2.407t1.484-2.5a.894.894,0,0,0-.562.157c-.135.1-.263.2-.382.293q-.81.585-1.643,1.147a8.311,8.311,0,0,1-1.822.922,1.026,1.026,0,0,1-.585.226,1.576,1.576,0,0,1-1.4-.338,1.327,1.327,0,0,1-.27-1.372,7.646,7.646,0,0,1,.315-.856c.119-.269.255-.54.4-.809q.36-.63.743-1.215t.787-1.17a1.3,1.3,0,0,1,.5-.383c.18-.074.39.008.63.248a2.624,2.624,0,0,0-.157.383.969.969,0,0,1-.249.382,16.084,16.084,0,0,1-.764,1.44Q39,17.184,38.6,17.9a3.953,3.953,0,0,0-.158.5,3.23,3.23,0,0,1-.247.63,2.579,2.579,0,0,1,.607-.09,1.244,1.244,0,0,0,.473-.091q.63-.359,1.215-.719t1.17-.765q.765-.585,1.439-1.17t1.441-1.215a2.242,2.242,0,0,1,.585-.428.838.838,0,0,1,.764.068q.63.361.045,1.485-.495.99-1.035,1.98t-1.035,2.024a.878.878,0,0,0-.157.226c-.045.089-.113.24-.2.45m-6.435,7.2q-.765.63-1.6,1.439T33.92,31.043q-.72.809-1.26,1.529a5.562,5.562,0,0,0-.72,1.17,8.283,8.283,0,0,0,1.192-.946,17.963,17.963,0,0,0,1.485-1.529q.742-.854,1.417-1.732a11.509,11.509,0,0,0,1.035-1.552" fill="#dbdbd9"/>
      <path id="패스_47" data-name="패스 47" d="M57.5,18.4c.149-.061.284-.114.4-.159s.255-.1.4-.157a.663.663,0,0,1,.765.316.516.516,0,0,1-.269.764,16.108,16.108,0,0,1-3.465,1.305,18.666,18.666,0,0,1-3.6.54,9.788,9.788,0,0,1-1.327,0,3.369,3.369,0,0,1-1.26-.315,1.769,1.769,0,0,1-.832-.787,2.015,2.015,0,0,1-.045-1.417,5.023,5.023,0,0,1,.585-1.26,3.175,3.175,0,0,1,1.034-.766,7.376,7.376,0,0,1,1.688-.516,9.461,9.461,0,0,1,1.687-.159.924.924,0,0,1,.9.766.939.939,0,0,1-.495,1.079,6.833,6.833,0,0,1-.945.473c-.33.134-.674.262-1.035.383a7.065,7.065,0,0,1-.854.134,8.782,8.782,0,0,1-.9.045c-.449,0-.7.1-.742.293a.657.657,0,0,0,.247.608,2.263,2.263,0,0,0,1.575.471,13.715,13.715,0,0,0,2.408-.179,13.594,13.594,0,0,0,2.429-.608A4.97,4.97,0,0,0,57.5,18.4m-4.545-1.306c.21-.27.218-.411.022-.427a2.5,2.5,0,0,0-.854.157,9.113,9.113,0,0,0-1.282.541,11.746,11.746,0,0,0-1.26.719,4.628,4.628,0,0,0,1.755-.2,3.863,3.863,0,0,0,1.619-.788" fill="#dbdbd9"/>
      <path id="패스_48" data-name="패스 48" d="M63.48,18.4q.539-.09,1.035-.158t.99-.157a5.774,5.774,0,0,1,.9-.135,6.8,6.8,0,0,0,.944-.135h.338a1.026,1.026,0,0,1,.337.09,1,1,0,0,1,.248.247.4.4,0,0,1,.067.338c0,.061-.06.135-.179.225a.557.557,0,0,1-.271.134c-.3.061-.578.114-.832.159s-.533.083-.833.112q-.855.18-1.686.292T62.9,19.7a1.365,1.365,0,0,0-.81.45q-.945.9-1.552,1.484a3.655,3.655,0,0,1-1.463.855,2.41,2.41,0,0,1-1.169.068,1.157,1.157,0,0,1-.811-.607A2.032,2.032,0,0,1,57,20.581a7.148,7.148,0,0,1,.99-2.182,8.995,8.995,0,0,1,1.372-1.642q.786-.744,1.687-1.462a4.969,4.969,0,0,1,.765-.473,2.576,2.576,0,0,1,.945-.248,1.493,1.493,0,0,1,1.17.248,1.26,1.26,0,0,1,.36,1.1,2.222,2.222,0,0,1-.135.742,6.781,6.781,0,0,0-.225.787,3.748,3.748,0,0,1-.2.428,5.64,5.64,0,0,0-.247.517m-4.319.225a2.777,2.777,0,0,0-.766,1.6.848.848,0,0,0,.428.855,1.178,1.178,0,0,0,1.035-.09,2.476,2.476,0,0,0,1.058-1.237,2.4,2.4,0,0,1-1.17-.248,1.219,1.219,0,0,1-.585-.877m3.824-2.97a3.928,3.928,0,0,0-2.34,1.845.8.8,0,0,0-.09.36.485.485,0,0,0,.225.359.877.877,0,0,0,.743.226.749.749,0,0,0,.652-.405,4.22,4.22,0,0,0,.472-.81,8.868,8.868,0,0,0,.338-.855.271.271,0,0,0,.045-.27,1.893,1.893,0,0,1-.045-.45" fill="#dbdbd9"/>
      <path id="패스_49" data-name="패스 49" d="M75.448,21.459a28.314,28.314,0,0,0,2.7-1.237q1.528-.787,2.7-1.418A2.734,2.734,0,0,1,82,18.512q.427.023.517.224c.06.135.007.316-.157.54a2.381,2.381,0,0,1-.923.653q-1.394.631-2.812,1.237t-2.857,1.192a2.467,2.467,0,0,1-1.844.09,1.29,1.29,0,0,1-.63-1.529,2.811,2.811,0,0,1,.269-.787,2.968,2.968,0,0,0,.27-.743c.12-.329.232-.63.338-.9a1.554,1.554,0,0,0,.135-.652.321.321,0,0,0-.315-.293,2.66,2.66,0,0,0-1.013.181q-.765.4-1.506.832T70,19.434q-.676.5-1.327.99t-1.373.99c-.06.061-.127.128-.2.2a1.072,1.072,0,0,1-.292.2c-.15.061-.307.12-.472.181a.485.485,0,0,1-.518-.181.584.584,0,0,1-.2-.471.894.894,0,0,1,.2-.473q.36-.54.7-1.08t.7-1.08q.45-.585.855-1.17t.81-1.215a1.675,1.675,0,0,0,.315-.54q.765-.945,1.125-.585c.27.181.18.615-.27,1.306q-.315.495-.585.967a7.107,7.107,0,0,1-.63.922c-.09.121-.255.315-.5.585s-.45.517-.63.743a1.83,1.83,0,0,0-.292.427q-.022.09.517-.4.99-.81,2.092-1.553a17.711,17.711,0,0,1,2.228-1.282,9.578,9.578,0,0,1,1.012-.428,2.705,2.705,0,0,1,1.035-.179,1.237,1.237,0,0,1,.81.338,1.662,1.662,0,0,1,.427,1.034,2.045,2.045,0,0,1-.27,1.328,14.069,14.069,0,0,0-.674,1.282,1.909,1.909,0,0,0-.181,1.192c.091.225.434.218,1.035-.022" fill="#dbdbd9"/>
      <path id="패스_50" data-name="패스 50" d="M120.487,31.133q-1.575.18-3.172.292t-3.217.293q-1.441.091-2.925.27t-2.925.36q-2.2.315-4.364.675l-4.319.72q-2.162.36-4.3.652t-4.387.518a16.686,16.686,0,0,1-2.136.134H86.336a2.7,2.7,0,0,1-1.98-1.011,2.444,2.444,0,0,1-.225-2.138,17.766,17.766,0,0,1,1.4-3.194A56.8,56.8,0,0,1,88.654,23.6q1.686-2.453,3.486-4.882.765-1.034,1.53-1.957A20.958,20.958,0,0,0,95.11,14.8a1.171,1.171,0,0,0,.36-.719c-.27.179-.556.359-.855.539l-.9.54q-2.023,1.26-4,2.474t-4.048,2.475a12.827,12.827,0,0,1-1.508.721q-.789.315-1.6.674a1.645,1.645,0,0,1-.472.113.8.8,0,0,1-.562-.247,1.628,1.628,0,0,0,.247-.2,1.589,1.589,0,0,1,.248-.2,63.721,63.721,0,0,0,6.771-3.824q3.261-2.115,6.592-4.184a21.02,21.02,0,0,0,3.442-2.543Q100.375,9,101.9,7.42q1.62-1.708,3.352-3.284a34.011,34.011,0,0,1,3.712-2.925,6.959,6.959,0,0,1,.765-.495l.81-.449a1.114,1.114,0,0,1,.337-.113.793.793,0,0,0,.248-.068.883.883,0,0,1,.99.136.651.651,0,0,1,0,.945q-.45.54-.855,1.057a11.022,11.022,0,0,1-.9,1.013,46.369,46.369,0,0,1-3.937,3.351q-2.048,1.554-4.207,2.948a17.827,17.827,0,0,0-2.474,1.979,27.276,27.276,0,0,0-2.161,2.34q-2.474,2.88-4.724,5.939T88.5,26.048q-.765,1.216-1.44,2.5t-1.35,2.543c-.09.21-.172.435-.248.675s-.157.495-.247.765a.98.98,0,0,0,.81,1.17c.27.06.524.112.765.157a2.29,2.29,0,0,0,.72.022q1.619-.088,3.24-.2t3.239-.338q3.6-.494,7.132-1.1t7.131-1.148q2.432-.4,4.882-.607t4.927-.383a9.941,9.941,0,0,1,1.935.18.756.756,0,0,1,.427.2c.105.1.127.322.068.652M104.559,6.521a12.84,12.84,0,0,0,1.507-.968q.833-.606,1.62-1.282t1.372-1.282a4.574,4.574,0,0,0,.766-.967,33.655,33.655,0,0,0-5.265,4.5" fill="#dbdbd9"/>
      <path id="패스_51" data-name="패스 51" d="M128.271,18.4c.149-.061.284-.114.4-.159s.255-.1.4-.157a.663.663,0,0,1,.765.316.516.516,0,0,1-.269.764,16.109,16.109,0,0,1-3.465,1.305,18.666,18.666,0,0,1-3.6.54,9.788,9.788,0,0,1-1.327,0,3.369,3.369,0,0,1-1.26-.315,1.769,1.769,0,0,1-.832-.787,2.015,2.015,0,0,1-.045-1.417,5.023,5.023,0,0,1,.585-1.26,3.175,3.175,0,0,1,1.034-.766,7.376,7.376,0,0,1,1.688-.516,9.461,9.461,0,0,1,1.687-.159.924.924,0,0,1,.9.766.939.939,0,0,1-.5,1.079,6.832,6.832,0,0,1-.945.473c-.33.134-.674.262-1.035.383a7.065,7.065,0,0,1-.854.134,8.782,8.782,0,0,1-.9.045c-.449,0-.7.1-.742.293a.657.657,0,0,0,.247.608,2.263,2.263,0,0,0,1.575.471,13.714,13.714,0,0,0,2.408-.179,13.594,13.594,0,0,0,2.429-.608,4.97,4.97,0,0,0,1.643-.854m-4.545-1.306c.21-.27.218-.411.022-.427a2.5,2.5,0,0,0-.854.157,9.113,9.113,0,0,0-1.282.541,11.746,11.746,0,0,0-1.26.719,4.628,4.628,0,0,0,1.755-.2,3.863,3.863,0,0,0,1.619-.788" fill="#dbdbd9"/>
      <path id="패스_52" data-name="패스 52" d="M137.9,18.4c.149-.061.284-.114.4-.159s.255-.1.4-.157a.663.663,0,0,1,.765.316.516.516,0,0,1-.269.764,16.109,16.109,0,0,1-3.465,1.305,18.666,18.666,0,0,1-3.6.54,9.788,9.788,0,0,1-1.327,0,3.369,3.369,0,0,1-1.26-.315,1.769,1.769,0,0,1-.832-.787,2.015,2.015,0,0,1-.045-1.417,5.023,5.023,0,0,1,.585-1.26,3.175,3.175,0,0,1,1.034-.766,7.376,7.376,0,0,1,1.688-.516,9.461,9.461,0,0,1,1.687-.159.924.924,0,0,1,.9.766.939.939,0,0,1-.5,1.079,6.833,6.833,0,0,1-.945.473c-.33.134-.674.262-1.035.383a7.065,7.065,0,0,1-.854.134,8.781,8.781,0,0,1-.9.045c-.449,0-.7.1-.742.293a.657.657,0,0,0,.247.608,2.263,2.263,0,0,0,1.575.471,13.715,13.715,0,0,0,2.408-.179,13.594,13.594,0,0,0,2.429-.608A4.97,4.97,0,0,0,137.9,18.4m-4.545-1.306c.21-.27.218-.411.022-.427a2.5,2.5,0,0,0-.854.157,9.114,9.114,0,0,0-1.282.541,11.746,11.746,0,0,0-1.26.719,4.628,4.628,0,0,0,1.755-.2,3.863,3.863,0,0,0,1.619-.788" fill="#dbdbd9"/>
    </g>
  </g>
</svg>
