<svg xmlns="http://www.w3.org/2000/svg" width="17.007" height="17" viewBox="0 0 17.007 17">
  <g id="tel" transform="translate(777.965 -722.009)">
    <path id="패스_41" data-name="패스 41" d="M330.035,4.623c.027-.122.051-.245.083-.366a1.786,1.786,0,0,1,.435-.808c.489-.5.976-1,1.487-1.47a1.121,1.121,0,0,1,1.628,0c.579.538,1.13,1.108,1.686,1.67a5.262,5.262,0,0,1,.641.713,1.075,1.075,0,0,1-.114,1.4c-.4.431-.82.838-1.233,1.255-.271.272-.269.278-.108.628a9.584,9.584,0,0,0,1.773,2.467,11.53,11.53,0,0,0,2.311,1.955c.289.182.6.327.9.493a.3.3,0,0,0,.4-.069c.391-.4.787-.794,1.183-1.188a1.446,1.446,0,0,1,.745-.436,1.112,1.112,0,0,1,.944.252,7.016,7.016,0,0,1,.518.489q.807.8,1.61,1.606a1.531,1.531,0,0,1,.445.706,1.059,1.059,0,0,1-.245,1.007c-.493.537-1,1.064-1.535,1.561a2.313,2.313,0,0,1-1.878.507,9.493,9.493,0,0,1-3.791-1.349,17.179,17.179,0,0,1-5.878-5.458A13.175,13.175,0,0,1,330.3,6.627c-.109-.356-.159-.731-.237-1.1-.008-.037-.021-.073-.032-.11Z" transform="translate(-1108 722)" fill="#00387c"/>
    <path id="패스_42" data-name="패스 42" d="M338.932.009c.3.067.6.129.9.2a9.378,9.378,0,0,1,3.922,2.021,9.617,9.617,0,0,1,3.078,4.849c.08.291.14.588.213.9l-1.287.221a8.53,8.53,0,0,0-7.131-6.913c.057-.414.116-.85.175-1.285Z" transform="translate(-1108 722)" fill="#00387c"/>
    <path id="패스_43" data-name="패스 43" d="M342.3,8.436A4.6,4.6,0,0,0,338.447,4.7c.06-.426.12-.855.18-1.283a5.8,5.8,0,0,1,4.947,4.8l-1.278.221" transform="translate(-1108 722)" fill="#00387c"/>
  </g>
</svg>
