<svg xmlns="http://www.w3.org/2000/svg" xmlns:xlink="http://www.w3.org/1999/xlink" width="245.124" height="35.834" viewBox="0 0 245.124 35.834">
  <defs>
    <clipPath id="clip-path">
      <rect id="사각형_11" data-name="사각형 11" width="245.124" height="35.834" transform="translate(0 0)" fill="none"/>
    </clipPath>
  </defs>
  <g id="그룹_14" data-name="그룹 14" transform="translate(0 0)">
    <g id="그룹_13" data-name="그룹 13" clip-path="url(#clip-path)">
      <path id="패스_53" data-name="패스 53" d="M31.981,20.694q1.393-.494,2.092-.72t1.26-.4q.561-.182,1.26-.428l2.092-.742a1.232,1.232,0,0,1,.63-.136c.12.03.254.068.405.113a.7.7,0,0,1,.36.247.4.4,0,0,1,.068.45.67.67,0,0,1-.293.315c-.151.09-.315.181-.495.27a1.964,1.964,0,0,1-.495.18,12.233,12.233,0,0,1-1.4.428,3.246,3.246,0,0,1-.563.067,2.932,2.932,0,0,0-.54.068,13.442,13.442,0,0,0-1.372.427q-1.035.361-2.092.743t-2.182.742a2.135,2.135,0,0,0-.7.607,6.175,6.175,0,0,0-.563.833,30.474,30.474,0,0,1-3.015,4.116,17.451,17.451,0,0,1-3.869,3.308,21.373,21.373,0,0,1-2.9,1.529,9.937,9.937,0,0,1-3.172.766,4.03,4.03,0,0,1-1.62-.136,1.572,1.572,0,0,1-1.17-.809,1.4,1.4,0,0,1,.135-1.4,6.49,6.49,0,0,1,1.3-1.71q.766-.63,1.553-1.192t1.552-1.148a30.44,30.44,0,0,1,4.478-2.474q2.316-1.035,4.611-2.025a4.91,4.91,0,0,0,1.642-.855,4.082,4.082,0,0,0,1.148-1.4,5.741,5.741,0,0,0,.945-2.024q.179-.9.27-.9a8.792,8.792,0,0,0-1.44.9,10.155,10.155,0,0,1-1.395.9,6.517,6.517,0,0,1-.945.428q-.45.158-.945.292a.832.832,0,0,1-.675.067,1.583,1.583,0,0,1-.585-.381,1.091,1.091,0,0,1,.09-1.26,5.906,5.906,0,0,1,.54-.721,4.531,4.531,0,0,1,.675-.63,7.165,7.165,0,0,1,1.71-1.215,9.876,9.876,0,0,1,1.935-.719,1.764,1.764,0,0,1,.562-.09h.563a2,2,0,0,1,.382-.045,1.052,1.052,0,0,0,.383-.09,2.238,2.238,0,0,1,.517-.112.378.378,0,0,1,.383.2q.4.36.089,1.035-.583,1.3-1.147,2.609t-1.192,2.475ZM17.358,32.438a13.642,13.642,0,0,0,3.261-1.417,22.368,22.368,0,0,0,3.127-2.228,22.8,22.8,0,0,0,2.7-2.7,16.451,16.451,0,0,0,1.98-2.879,22,22,0,0,0-2.834,1.1q-1.62.743-3.24,1.687T19.27,27.938a27.094,27.094,0,0,0-2.408,1.8,7.539,7.539,0,0,0-1.327,1.192,1.927,1.927,0,0,0-.54,1.058c-.014.3.157.5.518.607a4.082,4.082,0,0,0,1.845-.157m9.9-14.219q-.315.587.067.562a2.819,2.819,0,0,0,1.058-.381,13.2,13.2,0,0,0,1.508-.968,12.394,12.394,0,0,0,1.462-1.237,4.033,4.033,0,0,0-1.035.157,6.64,6.64,0,0,0-1.148.428,6.549,6.549,0,0,0-1.079.652,4.2,4.2,0,0,0-.833.787" fill="#dbdbd9"/>
      <path id="패스_54" data-name="패스 54" d="M51.553,18.985a6.435,6.435,0,0,1-1.507,1.034,8.01,8.01,0,0,1-2.025.766,3.2,3.2,0,0,1-1.777-.045c-.51-.181-.765-.66-.765-1.441a6.149,6.149,0,0,1,.045-.742q.045-.382.135-.832-1.172.72-2.272,1.417t-2.272,1.327a1.17,1.17,0,0,1-.608.271q-.337.043-.652.09a1.252,1.252,0,0,1-1.4-.585,1.3,1.3,0,0,1,.135-1.486q.225-.269.4-.5a3.276,3.276,0,0,1,.449-.449,7.8,7.8,0,0,1,2.566-1.53,7.157,7.157,0,0,1,3.015-.36.947.947,0,0,0,.944-.36q.315-.315.607-.63t.608-.63a1.829,1.829,0,0,1,.224-.27.719.719,0,0,1,.271-.18,1.108,1.108,0,0,1,.337-.045.6.6,0,0,1,.338.09.93.93,0,0,1,.179.675,2.537,2.537,0,0,1-.359.9c-.09.18-.271.548-.54,1.1a8.271,8.271,0,0,0-.607,1.641,2.356,2.356,0,0,0-.023,1.328q.178.517,1.215.2a5.206,5.206,0,0,0,1.17-.473q.63-.338,1.26-.652c.119-.06.239-.127.359-.2a.538.538,0,0,1,.4-.067.648.648,0,0,1,.338.292c.074.135.007.247-.2.338m-11.833.54a8.912,8.912,0,0,0,2.744-1.013,10.223,10.223,0,0,0,2.34-1.687,7.717,7.717,0,0,0-2.835.809,5.449,5.449,0,0,0-2.249,1.891" fill="#dbdbd9"/>
      <path id="패스_55" data-name="패스 55" d="M57.087,20.784c.209-.091.375-.165.495-.226a2.4,2.4,0,0,0,.359-.224q.853-.45,1.665-.9t1.665-.9a1.8,1.8,0,0,1,.944-.271.6.6,0,0,1,.361.136,2.713,2.713,0,0,1,.269.225c.151.269.031.525-.359.764a9.082,9.082,0,0,1-.945.495,8.191,8.191,0,0,0-.99.54q-1.171.766-2.339,1.508t-2.34,1.507a4.326,4.326,0,0,0-1.17,1.17c-.3.45-.615.9-.946,1.35q-1.394,2.16-2.9,4.139a41.06,41.06,0,0,1-3.307,3.824,11.919,11.919,0,0,1-1.576,1.26,3.248,3.248,0,0,1-.562.383,2.733,2.733,0,0,1-.653.247,1.046,1.046,0,0,1-.854-.18.827.827,0,0,1-.27-.854,2.137,2.137,0,0,1,.315-1.08,12.171,12.171,0,0,1,1.508-2.385,22.472,22.472,0,0,1,1.912-2.069q1.529-1.44,3.059-2.858t3.105-2.857c.149-.18.308-.367.473-.563s.321-.4.472-.607q.763-1.168,1.485-2.407t1.484-2.5a.894.894,0,0,0-.562.157c-.135.1-.263.2-.382.293q-.81.585-1.643,1.147a8.311,8.311,0,0,1-1.822.922,1.026,1.026,0,0,1-.585.226,1.576,1.576,0,0,1-1.4-.338,1.327,1.327,0,0,1-.27-1.372,7.646,7.646,0,0,1,.315-.856c.119-.269.255-.54.4-.809q.36-.63.743-1.215t.787-1.17a1.3,1.3,0,0,1,.5-.383c.18-.074.39.008.63.248a2.624,2.624,0,0,0-.157.383.969.969,0,0,1-.249.382,16.084,16.084,0,0,1-.764,1.44q-.405.675-.81,1.395a3.953,3.953,0,0,0-.158.5,3.229,3.229,0,0,1-.247.63,2.579,2.579,0,0,1,.607-.09,1.244,1.244,0,0,0,.473-.091q.63-.359,1.215-.719t1.17-.765q.765-.585,1.439-1.17t1.441-1.215a2.242,2.242,0,0,1,.585-.428.838.838,0,0,1,.764.068q.63.361.045,1.485-.495.99-1.035,1.98t-1.035,2.024a.878.878,0,0,0-.157.226c-.045.089-.113.24-.2.45m-6.435,7.2q-.765.63-1.6,1.439T47.5,31.043q-.72.809-1.26,1.529a5.562,5.562,0,0,0-.72,1.17,8.283,8.283,0,0,0,1.192-.946A17.963,17.963,0,0,0,48.2,31.267q.742-.854,1.417-1.732a11.509,11.509,0,0,0,1.035-1.552" fill="#dbdbd9"/>
      <path id="패스_56" data-name="패스 56" d="M71.08,18.4c.149-.061.284-.114.4-.159s.255-.1.4-.157a.663.663,0,0,1,.765.316.516.516,0,0,1-.269.764,16.108,16.108,0,0,1-3.465,1.305,18.666,18.666,0,0,1-3.6.54,9.788,9.788,0,0,1-1.327,0,3.369,3.369,0,0,1-1.26-.315,1.769,1.769,0,0,1-.832-.787,2.015,2.015,0,0,1-.045-1.417,5.023,5.023,0,0,1,.585-1.26,3.175,3.175,0,0,1,1.034-.766,7.376,7.376,0,0,1,1.688-.516,9.461,9.461,0,0,1,1.687-.159.924.924,0,0,1,.9.766.939.939,0,0,1-.5,1.079,6.832,6.832,0,0,1-.945.473c-.33.134-.674.262-1.035.383a7.065,7.065,0,0,1-.854.134,8.781,8.781,0,0,1-.9.045c-.449,0-.7.1-.742.293a.657.657,0,0,0,.247.608,2.263,2.263,0,0,0,1.575.471,13.715,13.715,0,0,0,2.408-.179,13.594,13.594,0,0,0,2.429-.608A4.97,4.97,0,0,0,71.08,18.4m-4.545-1.306c.21-.27.218-.411.022-.427a2.5,2.5,0,0,0-.854.157,9.113,9.113,0,0,0-1.282.541,11.747,11.747,0,0,0-1.26.719,4.628,4.628,0,0,0,1.755-.2,3.863,3.863,0,0,0,1.619-.788" fill="#dbdbd9"/>
      <path id="패스_57" data-name="패스 57" d="M77.063,18.4q.538-.09,1.035-.158t.99-.157a5.774,5.774,0,0,1,.9-.135,6.8,6.8,0,0,0,.944-.135h.338a1.026,1.026,0,0,1,.337.09,1,1,0,0,1,.248.247.4.4,0,0,1,.067.338c0,.061-.06.135-.179.225a.557.557,0,0,1-.271.134c-.3.061-.578.114-.832.159s-.533.083-.833.112q-.855.18-1.686.292t-1.643.293a1.365,1.365,0,0,0-.81.45q-.945.9-1.552,1.484a3.655,3.655,0,0,1-1.463.855,2.41,2.41,0,0,1-1.169.068,1.157,1.157,0,0,1-.811-.607,2.032,2.032,0,0,1-.089-1.373,7.148,7.148,0,0,1,.99-2.182,8.995,8.995,0,0,1,1.372-1.642q.786-.744,1.687-1.462a4.969,4.969,0,0,1,.765-.473,2.575,2.575,0,0,1,.945-.248,1.493,1.493,0,0,1,1.17.248,1.26,1.26,0,0,1,.36,1.1,2.222,2.222,0,0,1-.135.742,6.781,6.781,0,0,0-.225.787,3.746,3.746,0,0,1-.2.428,5.64,5.64,0,0,0-.247.517m-4.319.225a2.777,2.777,0,0,0-.766,1.6.848.848,0,0,0,.428.855,1.178,1.178,0,0,0,1.035-.09A2.476,2.476,0,0,0,74.5,19.749a2.4,2.4,0,0,1-1.17-.248,1.219,1.219,0,0,1-.585-.877m3.824-2.97a3.928,3.928,0,0,0-2.34,1.845.8.8,0,0,0-.09.36.485.485,0,0,0,.225.359.877.877,0,0,0,.743.226.749.749,0,0,0,.652-.405,4.22,4.22,0,0,0,.472-.81,8.871,8.871,0,0,0,.338-.855.271.271,0,0,0,.045-.27,1.893,1.893,0,0,1-.045-.45" fill="#dbdbd9"/>
      <path id="패스_58" data-name="패스 58" d="M89.031,21.459a28.314,28.314,0,0,0,2.7-1.237q1.528-.787,2.7-1.418a2.734,2.734,0,0,1,1.148-.292q.427.023.517.224c.06.135.007.316-.157.54a2.381,2.381,0,0,1-.923.653q-1.394.631-2.812,1.237t-2.857,1.192a2.467,2.467,0,0,1-1.844.09,1.29,1.29,0,0,1-.63-1.529,2.811,2.811,0,0,1,.269-.787,2.968,2.968,0,0,0,.27-.743c.12-.329.232-.63.338-.9a1.554,1.554,0,0,0,.135-.652.321.321,0,0,0-.315-.293,2.66,2.66,0,0,0-1.013.181q-.765.4-1.506.832t-1.463.877q-.676.5-1.327.99t-1.373.99c-.06.061-.127.128-.2.2a1.072,1.072,0,0,1-.292.2c-.15.061-.307.12-.472.181a.485.485,0,0,1-.518-.181.584.584,0,0,1-.2-.471.894.894,0,0,1,.2-.473q.36-.54.7-1.08t.7-1.08q.45-.585.855-1.17t.81-1.215a1.675,1.675,0,0,0,.315-.54q.765-.945,1.125-.585c.27.181.18.615-.27,1.306q-.315.495-.585.967a7.107,7.107,0,0,1-.63.922c-.09.121-.255.315-.5.585s-.45.517-.63.743a1.83,1.83,0,0,0-.292.427q-.022.09.517-.4.99-.81,2.092-1.553a17.711,17.711,0,0,1,2.228-1.282,9.578,9.578,0,0,1,1.012-.428,2.705,2.705,0,0,1,1.035-.179,1.237,1.237,0,0,1,.81.338,1.662,1.662,0,0,1,.427,1.034,2.045,2.045,0,0,1-.27,1.328,14.069,14.069,0,0,0-.674,1.282A1.909,1.909,0,0,0,88,21.481c.091.225.434.218,1.035-.022" fill="#dbdbd9"/>
      <path id="패스_59" data-name="패스 59" d="M134.071,31.133q-1.575.18-3.172.292t-3.217.293q-1.441.091-2.925.27t-2.925.36q-2.2.315-4.364.675l-4.319.72q-2.162.36-4.3.652t-4.387.518a16.686,16.686,0,0,1-2.136.134H99.92a2.7,2.7,0,0,1-1.98-1.011,2.444,2.444,0,0,1-.225-2.138,17.766,17.766,0,0,1,1.4-3.194,56.8,56.8,0,0,1,3.128-5.108q1.686-2.453,3.486-4.882.765-1.034,1.53-1.957a20.958,20.958,0,0,0,1.44-1.957,1.171,1.171,0,0,0,.36-.719c-.27.179-.556.359-.855.539l-.9.54q-2.024,1.26-4.005,2.474t-4.048,2.475a12.827,12.827,0,0,1-1.508.721q-.789.315-1.6.674a1.645,1.645,0,0,1-.472.113.8.8,0,0,1-.562-.247,1.628,1.628,0,0,0,.247-.2,1.589,1.589,0,0,1,.248-.2,63.721,63.721,0,0,0,6.771-3.824q3.261-2.115,6.592-4.184a21.02,21.02,0,0,0,3.442-2.543Q113.959,9,115.488,7.42q1.62-1.708,3.352-3.284a34.011,34.011,0,0,1,3.712-2.925,6.959,6.959,0,0,1,.765-.495l.81-.449a1.114,1.114,0,0,1,.337-.113.793.793,0,0,0,.248-.068.883.883,0,0,1,.99.136.651.651,0,0,1,0,.945q-.45.54-.855,1.057a11.022,11.022,0,0,1-.9,1.013,46.369,46.369,0,0,1-3.937,3.351q-2.048,1.554-4.207,2.948a17.827,17.827,0,0,0-2.474,1.979,27.276,27.276,0,0,0-2.161,2.34q-2.474,2.88-4.724,5.939t-4.364,6.254q-.765,1.216-1.44,2.5t-1.35,2.543c-.09.21-.172.435-.248.675s-.157.495-.247.765a.98.98,0,0,0,.81,1.17c.27.06.524.112.765.157a2.29,2.29,0,0,0,.72.022q1.619-.088,3.24-.2t3.239-.338q3.6-.494,7.132-1.1t7.131-1.148q2.432-.4,4.882-.607t4.927-.383a9.941,9.941,0,0,1,1.935.18.756.756,0,0,1,.427.2c.1.1.127.322.068.652M118.143,6.521a12.84,12.84,0,0,0,1.507-.968q.833-.606,1.62-1.282t1.372-1.282a4.574,4.574,0,0,0,.766-.967,33.655,33.655,0,0,0-5.265,4.5" fill="#dbdbd9"/>
      <path id="패스_60" data-name="패스 60" d="M141.855,18.4c.149-.061.284-.114.4-.159s.255-.1.4-.157a.663.663,0,0,1,.765.316.516.516,0,0,1-.269.764,16.109,16.109,0,0,1-3.465,1.305,18.666,18.666,0,0,1-3.6.54,9.788,9.788,0,0,1-1.327,0,3.369,3.369,0,0,1-1.26-.315,1.769,1.769,0,0,1-.832-.787,2.015,2.015,0,0,1-.045-1.417,5.023,5.023,0,0,1,.585-1.26,3.175,3.175,0,0,1,1.034-.766,7.376,7.376,0,0,1,1.688-.516,9.461,9.461,0,0,1,1.687-.159.924.924,0,0,1,.9.766.939.939,0,0,1-.495,1.079,6.833,6.833,0,0,1-.945.473c-.33.134-.674.262-1.035.383a7.065,7.065,0,0,1-.854.134,8.781,8.781,0,0,1-.9.045c-.449,0-.7.1-.742.293a.657.657,0,0,0,.247.608,2.263,2.263,0,0,0,1.575.471,13.715,13.715,0,0,0,2.408-.179,13.594,13.594,0,0,0,2.429-.608,4.97,4.97,0,0,0,1.643-.854m-4.545-1.306c.21-.27.218-.411.022-.427a2.5,2.5,0,0,0-.854.157,9.114,9.114,0,0,0-1.282.541,11.746,11.746,0,0,0-1.26.719,4.628,4.628,0,0,0,1.755-.2,3.863,3.863,0,0,0,1.619-.788" fill="#dbdbd9"/>
      <path id="패스_61" data-name="패스 61" d="M151.484,18.4c.148-.061.284-.114.4-.159s.256-.1.405-.157a.662.662,0,0,1,.765.316.516.516,0,0,1-.269.764,16.081,16.081,0,0,1-3.464,1.305,18.665,18.665,0,0,1-3.6.54,9.788,9.788,0,0,1-1.327,0,3.369,3.369,0,0,1-1.259-.315,1.765,1.765,0,0,1-.832-.787,2,2,0,0,1-.045-1.417,5.029,5.029,0,0,1,.584-1.26,3.2,3.2,0,0,1,1.034-.766,7.407,7.407,0,0,1,1.688-.516,9.478,9.478,0,0,1,1.687-.159.925.925,0,0,1,.9.766.94.94,0,0,1-.5,1.079,6.766,6.766,0,0,1-.944.473c-.331.134-.674.262-1.036.383a7,7,0,0,1-.854.134,8.782,8.782,0,0,1-.9.045c-.448,0-.7.1-.741.293a.659.659,0,0,0,.246.608,2.265,2.265,0,0,0,1.575.471,13.708,13.708,0,0,0,2.408-.179,13.593,13.593,0,0,0,2.429-.608,4.988,4.988,0,0,0,1.644-.854m-4.545-1.306c.209-.27.217-.411.021-.427a2.5,2.5,0,0,0-.853.157,9.071,9.071,0,0,0-1.283.541,11.845,11.845,0,0,0-1.26.719,4.633,4.633,0,0,0,1.756-.2,3.869,3.869,0,0,0,1.619-.788" fill="#dbdbd9"/>
      <path id="패스_62" data-name="패스 62" d="M5.974,9.553a6.386,6.386,0,0,1,2.4.436A5.078,5.078,0,0,1,10.256,11.3,6.206,6.206,0,0,1,11.5,13.449a9.005,9.005,0,0,1,.449,2.975V19.09a9.009,9.009,0,0,1-.449,2.975,6.05,6.05,0,0,1-1.243,2.14,5.133,5.133,0,0,1-1.885,1.3,6.386,6.386,0,0,1-2.4.436,6.39,6.39,0,0,1-2.4-.436,5.133,5.133,0,0,1-1.885-1.3,6.035,6.035,0,0,1-1.243-2.14A8.983,8.983,0,0,1,0,19.09V16.424a9.083,9.083,0,0,1,.449-2.987,6.03,6.03,0,0,1,1.243-2.154A5.142,5.142,0,0,1,3.577,9.989a6.39,6.39,0,0,1,2.4-.436m0,14.1A3.543,3.543,0,0,0,7.308,23.4a2.813,2.813,0,0,0,1.128-.846,4.477,4.477,0,0,0,.781-1.525,7.7,7.7,0,0,0,.3-2.295V16.782a7.692,7.692,0,0,0-.3-2.293,4.355,4.355,0,0,0-.794-1.527,2.951,2.951,0,0,0-1.129-.846,3.475,3.475,0,0,0-1.32-.256,3.571,3.571,0,0,0-1.333.256,2.813,2.813,0,0,0-1.128.846,4.5,4.5,0,0,0-.783,1.527,7.727,7.727,0,0,0-.294,2.293v1.949a7.737,7.737,0,0,0,.294,2.295,4.479,4.479,0,0,0,.783,1.525,2.786,2.786,0,0,0,1.128.846,3.534,3.534,0,0,0,1.333.258m9.9-15.692h2.539V31.6H15.87Z" fill="#1a1311"/>
      <path id="패스_63" data-name="패스 63" d="M35.458,24.372q2.051-1.2,3.475-2.141a27.624,27.624,0,0,0,2.358-1.705,9.928,9.928,0,0,0,1.475-1.448,5.043,5.043,0,0,0,.794-1.372,5.5,5.5,0,0,0,.321-1.423q.063-.731.063-1.653V12.348H35.92V10.169H46.457v4.486q0,1.181-.063,2.1a6.667,6.667,0,0,1-.36,1.757,6.255,6.255,0,0,1-.9,1.64,10.734,10.734,0,0,1-1.679,1.717,32.734,32.734,0,0,1-2.705,2.014q-1.629,1.1-3.962,2.511Zm21.665-5.461H53.482V31.6H50.944V7.964h2.538v8.742h3.641Z" fill="#1a1311"/>
      <path id="패스_64" data-name="패스 64" d="M77.506,8.81A6.289,6.289,0,0,1,80.07,9.3a5.846,5.846,0,0,1,1.859,1.268,5.169,5.169,0,0,1,1.128,1.757,5.364,5.364,0,0,1,.372,1.923v1.308a5.368,5.368,0,0,1-.372,1.923,5.142,5.142,0,0,1-1.128,1.755A5.8,5.8,0,0,1,80.07,20.5a6.993,6.993,0,0,1-5.128,0,5.8,5.8,0,0,1-1.859-1.27,5.142,5.142,0,0,1-1.128-1.755,5.368,5.368,0,0,1-.372-1.923V14.245a5.364,5.364,0,0,1,.372-1.923,5.169,5.169,0,0,1,1.128-1.757A5.846,5.846,0,0,1,74.942,9.3a6.292,6.292,0,0,1,2.564-.487m0,9.947a3.487,3.487,0,0,0,1.5-.307,3.614,3.614,0,0,0,1.1-.782,3.217,3.217,0,0,0,.68-1.09,3.5,3.5,0,0,0,.231-1.23v-.9a3.5,3.5,0,0,0-.231-1.23,3.217,3.217,0,0,0-.68-1.09,3.6,3.6,0,0,0-1.1-.782,3.807,3.807,0,0,0-3,0,3.6,3.6,0,0,0-1.1.782,3.212,3.212,0,0,0-.678,1.09,3.456,3.456,0,0,0-.232,1.23v.9a3.456,3.456,0,0,0,.232,1.23,3.212,3.212,0,0,0,.678,1.09,3.619,3.619,0,0,0,1.1.782,3.487,3.487,0,0,0,1.5.307m1.128,10.385H91.428v2.2H76.1V23.5h2.538Zm9.743-4.308V18.988H84.659V16.81h3.718V13.3H84.659V11.117h3.718V7.964h2.487v16.87Z" fill="#1a1311"/>
      <path id="패스_65" data-name="패스 65" d="M169.918,21.657a11.433,11.433,0,0,0,.4,2.976,8.708,8.708,0,0,0,1.408,2.87h-1.211a7.717,7.717,0,0,1-1.461-2.66,10.633,10.633,0,0,1-.475-3.251v-.528a10.5,10.5,0,0,1,.475-3.238,7.751,7.751,0,0,1,1.461-2.647h1.211a8.6,8.6,0,0,0-1.389,2.772A11.085,11.085,0,0,0,169.918,21Z" fill="#1a1311"/>
      <path id="패스_66" data-name="패스 66" d="M178.014,27.107v-4.16H173.1V21.842h11.138v1.105h-4.911v4.16Zm2.134-7.438a7.312,7.312,0,0,1-1-.579,1.511,1.511,0,0,1-.46-.474h-.013a1.411,1.411,0,0,1-.454.481,7.334,7.334,0,0,1-1.007.586q-.54.262-1.205.579c-.444.211-.941.421-1.5.632L174,19.827c.493-.184.974-.384,1.448-.6s.922-.437,1.343-.665a3.337,3.337,0,0,0,.638-.428,1.9,1.9,0,0,0,.375-.442,1.456,1.456,0,0,0,.179-.454,2.425,2.425,0,0,0,.047-.467H174.54V15.667h8.293v1.106h-3.5a2.423,2.423,0,0,0,.045.467,1.568,1.568,0,0,0,.172.454,1.775,1.775,0,0,0,.369.442,3.338,3.338,0,0,0,.638.428q.633.342,1.343.665t1.448.6l-.5,1.054c-.552-.211-1.052-.422-1.494-.633s-.845-.4-1.2-.579" fill="#1a1311"/>
      <path id="패스_67" data-name="패스 67" d="M187.428,21a11.085,11.085,0,0,0-.415-3.048,8.594,8.594,0,0,0-1.389-2.771h1.211a7.737,7.737,0,0,1,1.461,2.646,10.511,10.511,0,0,1,.475,3.238v.528a10.624,10.624,0,0,1-.475,3.251,7.708,7.708,0,0,1-1.461,2.66h-1.211a8.708,8.708,0,0,0,1.408-2.87,11.432,11.432,0,0,0,.4-2.976Z" fill="#1a1311"/>
      <path id="패스_68" data-name="패스 68" d="M197.5,17.761h-4.754v6.2h.775q1.434,0,2.684-.1t2.495-.285l.19,1.215a24.966,24.966,0,0,1-2.67.329q-1.368.094-3.006.1h-1.916V16.5h6.2Zm5.763,3.656h-2.077v7.358h-1.448V15.288h1.448v4.871h2.077Z" fill="#1a1311"/>
      <path id="패스_69" data-name="패스 69" d="M208.408,24.62V22.747c-.5.021-1.034.03-1.609.03h-1.916V21.533q1.593,0,2.771-.014t2.158-.044q.981-.03,1.85-.088t1.836-.146l.117,1.2q-.921.1-1.806.168t-1.967.1V24.62Zm.7-3.833a4.41,4.41,0,0,1-1.36-.2,3.574,3.574,0,0,1-1.054-.526,2.437,2.437,0,0,1-.679-.761,1.807,1.807,0,0,1-.243-.9v-.5a1.811,1.811,0,0,1,.243-.9,2.448,2.448,0,0,1,.679-.761,3.6,3.6,0,0,1,1.054-.526,4.8,4.8,0,0,1,2.721,0,3.586,3.586,0,0,1,1.052.526,2.455,2.455,0,0,1,.681.761,1.83,1.83,0,0,1,.241.9v.5a1.826,1.826,0,0,1-.241.9,2.444,2.444,0,0,1-.681.761,3.561,3.561,0,0,1-1.052.526,4.426,4.426,0,0,1-1.361.2m-.571,6.613H216.2v1.243h-9.112v-3.6h1.447Zm.571-7.826a2.677,2.677,0,0,0,.819-.118,2.01,2.01,0,0,0,.615-.306,1.634,1.634,0,0,0,.388-.41.828.828,0,0,0,.138-.439v-.293a.827.827,0,0,0-.138-.438,1.518,1.518,0,0,0-.388-.4,2.15,2.15,0,0,0-.615-.3,2.925,2.925,0,0,0-1.638,0,2.13,2.13,0,0,0-.614.3,1.5,1.5,0,0,0-.388.4.813.813,0,0,0-.14.438V18.3a.814.814,0,0,0,.14.439,1.616,1.616,0,0,0,.388.41,1.993,1.993,0,0,0,.614.306,2.677,2.677,0,0,0,.819.118m5.383-4.287h1.434V25.731h-1.434Z" fill="#1a1311"/>
      <path id="패스_70" data-name="패스 70" d="M224.353,17.716H220.71V20.1h3v1.2h-3v2.721h.834q.5,0,.936-.008c.292-.005.585-.015.877-.029s.593-.036.9-.066.631-.068.972-.117l.146,1.214q-.57.089-1.074.14c-.337.034-.669.06-.995.08s-.657.031-.988.036-.687.008-1.068.008h-1.989V16.473h5.091Zm1.959-2.15h1.419v12.55h-1.419V21.271h-1.8V20.012h1.8Zm4.155,13.209h-1.419V15.288h1.419Z" fill="#1a1311"/>
      <path id="패스_71" data-name="패스 71" d="M245.124,26.976H232.749V25.747h12.375Zm-1.741-10.517V18.77q0,.979-.029,1.77c-.02.526-.051,1.022-.1,1.484s-.1.91-.153,1.339-.132.872-.22,1.331l-1.448-.175q.16-.819.256-1.566t.153-1.507l-7.693.132-.03-1.228,7.8-.088c0-.166,0-.329.008-.49s.007-.325.007-.491V17.717h-7.592V16.459Z" fill="#1a1311"/>
      <path id="패스_72" data-name="패스 72" d="M114.511,22.45a5.685,5.685,0,0,0,.556-.717,3.368,3.368,0,0,0,.322-.636,2.71,2.71,0,0,0,.154-.651,7.333,7.333,0,0,0,.037-.775V16.526h1.067V19.6c0,.284.01.53.029.74a2.956,2.956,0,0,0,.118.6,2.365,2.365,0,0,0,.262.564,5.456,5.456,0,0,0,.469.614q.438.511,1.075,1.155t1.47,1.39l-.673.7q-.7-.657-1.3-1.251t-1.031-1.06c-.224-.234-.427-.458-.606-.673a2.113,2.113,0,0,1-.33-.468h-.014a.777.777,0,0,1-.117.227c-.069.1-.154.216-.256.343s-.212.261-.329.4-.23.27-.337.387q-.19.206-.461.483c-.18.185-.372.381-.577.585s-.42.415-.644.63-.444.414-.658.6l-.688-.717q.732-.644,1.338-1.228c.406-.391.778-.78,1.119-1.171m8.017-1.916h2.237v.922h-2.237v7.46h-1.039V15.546h1.039Z" fill="#1a1311"/>
      <path id="패스_73" data-name="패스 73" d="M134.948,22.245l-.989.088q-.489.043-1,.081c-.34.024-.7.046-1.082.065s-.785.034-1.214.044v2.121h-1.039V22.538q-.745.028-1.594.029H126.17v-.893q1.581,0,2.78-.014t2.2-.051q1-.036,1.88-.095t1.829-.161Zm-4.623-1.521a4.5,4.5,0,0,1-1.258-.169,3.62,3.62,0,0,1-1.025-.46,2.329,2.329,0,0,1-.687-.687,1.6,1.6,0,0,1-.248-.864v-.555a1.589,1.589,0,0,1,.248-.863,2.308,2.308,0,0,1,.687-.688,3.65,3.65,0,0,1,1.025-.461,4.79,4.79,0,0,1,2.515,0,3.65,3.65,0,0,1,1.025.461,2.308,2.308,0,0,1,.687.688,1.581,1.581,0,0,1,.249.863v.555a1.59,1.59,0,0,1-.249.864,2.329,2.329,0,0,1-.687.687,3.62,3.62,0,0,1-1.025.46,4.493,4.493,0,0,1-1.257.169m0-4.038a3.3,3.3,0,0,0-.871.11,2.725,2.725,0,0,0-.71.3,1.59,1.59,0,0,0-.482.447.928.928,0,0,0-.176.533v.381a.92.92,0,0,0,.176.541,1.634,1.634,0,0,0,.482.439,2.725,2.725,0,0,0,.71.3,3.5,3.5,0,0,0,1.734,0,2.7,2.7,0,0,0,.717-.3,1.622,1.622,0,0,0,.482-.439.92.92,0,0,0,.176-.541v-.381a.928.928,0,0,0-.176-.533,1.579,1.579,0,0,0-.482-.447,2.7,2.7,0,0,0-.717-.3,3.335,3.335,0,0,0-.863-.11m-.834,11.161H137.3v.907h-8.85v-3.54h1.039Zm6.48-4.241V15.545h1.024V25.931h-1.024V24.512h-3.014v-.906Z" fill="#1a1311"/>
    </g>
  </g>
</svg>
